<svg version="1.1" id="Layer_1" xmlns="http://www.w3.org/2000/svg" xmlns:xlink="http://www.w3.org/1999/xlink" x="0px" y="0px"
	 width="100%" viewBox="0 0 500 500" enable-background="new 0 0 500 500" xml:space="preserve">
<path fill="#000000" opacity="1.000000" stroke="none" 
	d="
M326.000000,501.000000 
	C217.333359,501.000000 109.166718,501.000000 1.000058,501.000000 
	C1.000039,334.333405 1.000039,167.666794 1.000019,1.000148 
	C167.666565,1.000098 334.333130,1.000098 500.999756,1.000049 
	C500.999847,167.666519 500.999847,334.333038 500.999939,500.999786 
	C442.833344,501.000000 384.666656,501.000000 326.000000,501.000000 
M213.901443,117.873634 
	C213.796661,117.343796 213.691879,116.813965 213.587097,116.284134 
	C213.413010,116.314117 213.238922,116.344101 213.064835,116.374084 
	C213.110123,117.105827 213.155411,117.837563 213.418335,119.403664 
	C213.193176,123.262047 212.968018,127.120422 211.841095,130.978165 
	C206.880676,130.991669 201.920242,131.005173 196.166428,131.385696 
	C196.096680,141.909576 196.026932,152.433456 195.031540,163.012665 
	C190.047470,163.336914 185.063385,163.661179 179.997543,164.921432 
	C179.999863,180.599243 180.002182,196.277054 179.066406,211.985229 
	C169.512146,211.987427 159.956879,211.926575 150.404968,212.077927 
	C149.308777,212.095291 148.231384,213.297516 146.936234,214.866776 
	C146.784637,219.575562 146.633041,224.284348 146.352325,229.026184 
	C146.352325,229.026184 146.220184,229.043732 145.744110,228.281448 
	C130.620834,228.196976 115.497589,228.102905 100.374199,228.071106 
	C99.885506,228.070068 99.395470,228.705841 98.995377,229.003754 
	C98.995377,229.003754 99.043114,228.917847 98.261543,229.325256 
	C98.201942,234.574875 98.142342,239.824509 97.136139,245.072617 
	C92.300980,245.072617 87.465828,245.072617 82.630669,245.072617 
	C82.635300,245.291046 82.639931,245.509476 82.644554,245.727921 
	C83.096176,245.848099 83.547798,245.968277 84.135025,246.710846 
	C85.090210,246.504089 86.045395,246.297318 87.789703,245.922333 
	C88.859390,245.978653 89.929077,246.034973 91.029587,246.893311 
	C91.689041,251.628235 92.348503,256.363159 92.124313,261.161957 
	C89.564713,261.161957 87.005104,261.161957 84.445503,261.161957 
	C84.445221,261.401917 84.444939,261.641846 84.444656,261.881805 
	C88.987061,261.881805 93.529472,261.881805 98.207962,262.343658 
	C98.360687,262.663574 98.613533,262.839905 98.983841,263.744629 
	C98.983841,265.657593 98.983841,267.570587 98.983841,269.483551 
	C99.466240,269.759888 99.948639,270.036194 100.431038,270.312500 
	C102.650955,268.671936 104.870872,267.031403 107.306412,265.231476 
	C109.124023,266.452728 111.145073,267.594666 112.913834,269.044403 
	C116.516151,271.997040 119.186386,271.779846 122.302025,268.387207 
	C123.026726,267.598114 124.557335,267.177887 125.699097,267.210907 
	C129.496857,267.320740 133.317322,268.150421 137.070984,267.884338 
	C141.398621,267.577637 143.186752,269.443268 143.615372,273.349121 
	C143.777802,274.829285 143.870712,276.317078 143.066391,277.930511 
	C130.379288,277.887939 117.692192,277.845367 104.786224,277.133606 
	C102.662796,275.619568 100.629723,274.916382 98.258789,278.177979 
	C98.714684,278.469849 99.170860,279.017090 99.626434,279.016602 
	C115.381241,278.998993 131.136002,278.929657 147.448303,278.875671 
	C147.630325,278.913330 147.812363,278.950958 147.991974,279.920166 
	C147.992294,284.546356 147.992599,289.172546 147.494431,294.332733 
	C149.229050,294.567932 150.962204,294.993103 152.698517,295.006470 
	C161.637085,295.075287 170.576477,295.038330 180.147064,295.038330 
	C180.147064,311.692474 180.147064,327.734497 180.147064,343.474854 
	C185.831451,344.070160 190.847488,344.595490 195.989822,346.035614 
	C195.993652,354.162781 195.936966,362.290710 196.041626,370.416565 
	C196.069641,372.591797 196.590134,374.760712 197.833405,376.959656 
	C201.630569,376.967529 205.431015,377.074951 209.223801,376.950104 
	C211.987427,376.859161 213.100525,377.966797 213.002731,380.730286 
	C212.872452,384.411316 212.970551,388.100433 212.970551,391.786102 
	C213.343048,391.788727 213.715546,391.791382 214.088043,391.794037 
	C214.088043,388.535187 214.088043,385.276306 214.921570,382.005280 
	C217.424622,382.876617 219.896088,383.861450 222.444214,384.570953 
	C223.700684,384.920837 225.922668,385.300598 226.289261,384.739716 
	C227.822601,382.393616 228.818466,379.696198 230.341736,376.945374 
	C230.341736,376.945374 230.710266,376.864380 231.674088,376.938690 
	C236.131912,376.947937 240.589737,376.957184 245.713196,376.451538 
	C245.795074,374.811707 245.937775,373.172272 245.949295,371.531952 
	C246.051285,357.001984 246.130005,342.471863 247.121231,327.976837 
	C252.096359,327.606873 257.071503,327.236938 262.845673,326.541351 
	C262.920166,316.026794 262.994659,305.512268 263.996979,295.040192 
	C274.537933,295.040192 285.078918,295.040192 296.289612,295.040192 
	C295.834015,289.496246 295.421234,284.473267 294.974274,279.409668 
	C294.974274,279.409668 294.948334,279.363281 295.852448,279.073578 
	C310.439606,279.066376 325.026978,279.089111 339.613678,279.005371 
	C341.059784,278.997070 342.502136,278.338287 344.557373,277.419250 
	C344.753296,272.617401 344.949219,267.815521 346.006866,263.023621 
	C349.898468,263.010559 353.803894,263.174713 357.673065,262.873657 
	C358.795929,262.786255 360.724213,261.375641 360.732361,260.556183 
	C360.780457,255.712906 360.371490,250.865082 359.712006,245.224777 
	C354.842651,245.008270 349.973297,244.791748 345.333496,244.585434 
	C344.827179,239.047165 344.365784,234.000244 343.607147,228.130829 
	C327.392792,228.032227 311.178406,227.933624 295.004242,227.486404 
	C295.004242,227.486404 295.034943,227.136841 294.988770,226.277603 
	C294.956085,221.842438 294.923401,217.407272 294.611145,212.146317 
	C284.099548,212.091095 273.587952,212.035858 262.994690,211.049103 
	C262.995911,202.902176 263.058319,194.754471 262.957397,186.608810 
	C262.930573,184.442490 262.402618,182.282394 261.162506,180.059723 
	C256.157715,179.992355 251.152939,179.924988 246.039307,178.943924 
	C245.944412,163.268097 245.849503,147.592255 245.171341,131.416870 
	C240.277817,131.416870 235.384293,131.416870 229.836945,131.416870 
	C229.836945,125.632973 229.836945,120.574020 229.836945,115.515060 
	C229.476746,115.533653 229.116547,115.552246 228.756348,115.570839 
	C228.756348,119.711121 228.756348,123.851402 228.101959,127.876656 
	C226.773666,127.004532 225.445374,126.132408 224.117081,125.260277 
	C224.123108,125.638145 224.129150,126.016014 224.135178,126.393875 
	C220.637253,126.940147 217.139343,127.486420 213.541611,127.154243 
	C213.628464,124.289589 213.715317,121.424942 213.901443,117.873634 
M133.016769,165.657150 
	C133.389328,166.244888 133.761887,166.832611 134.134445,167.420349 
	C134.331787,167.204529 134.720657,166.822815 134.698441,166.797180 
	C134.159286,166.174759 133.576309,165.590286 133.114014,164.231781 
	C134.702820,158.910812 139.172501,161.036774 142.287689,161.328674 
	C143.753281,161.466034 144.925812,164.730774 146.034958,166.300659 
	C147.931870,162.684326 147.335312,159.422775 144.266724,159.482956 
	C140.809601,159.550735 137.346100,159.724335 133.908524,160.077377 
	C132.953354,160.175461 131.256058,161.220612 131.319839,161.577179 
	C131.534988,162.780151 132.389038,163.868835 133.016769,165.657150 
M336.592560,364.917938 
	C336.415466,364.562195 336.238373,364.206482 336.029083,363.403778 
	C336.029083,363.403778 335.890778,362.977509 335.696442,362.173706 
	C328.348328,361.720001 327.391266,363.578705 329.618378,373.684723 
	C331.729767,373.684723 333.790131,373.684723 336.152283,373.684723 
	C336.152283,370.592194 336.152283,367.807648 336.050232,365.011322 
	C336.050232,365.011322 336.080139,365.109619 336.592560,364.917938 
M95.977959,166.969955 
	C95.977959,166.969955 96.016380,166.992722 96.037209,167.838989 
	C100.558128,170.422699 105.031502,169.097900 109.674744,167.784668 
	C103.723915,167.675003 98.836510,165.777603 94.639656,161.129517 
	C95.075653,163.065186 95.511658,165.000839 95.977959,166.969955 
M351.009918,359.129242 
	C350.951874,357.755920 350.893829,356.382629 350.606934,354.170502 
	C346.845490,354.170502 343.084015,354.170502 339.159607,354.170502 
	C339.159607,356.488068 339.159607,358.556427 339.159607,361.491516 
	C343.236359,360.953033 347.060455,360.447937 351.009918,359.129242 
M363.205444,159.321167 
	C363.205444,162.419693 363.205444,165.518219 363.205444,168.705597 
	C369.856049,168.705597 376.376038,168.705597 383.525421,168.705597 
	C382.954224,165.259445 382.449097,162.211914 381.026611,159.010117 
	C375.373810,159.052475 369.720978,159.094833 363.205444,159.321167 
M116.802948,171.286682 
	C116.430542,176.832657 116.058136,182.378632 115.646378,188.510696 
	C119.401497,187.925690 122.188988,187.491425 124.989609,186.115967 
	C124.991226,182.642624 124.888145,179.165070 125.027229,175.697235 
	C125.140640,172.869202 123.910728,171.779327 121.186935,171.985168 
	C119.871437,172.084579 118.541893,171.998367 116.802948,171.286682 
M345.977051,187.350861 
	C345.348145,191.553299 346.795502,193.239426 351.377747,193.169052 
	C355.652405,193.103394 357.644867,192.041656 357.030853,187.541397 
	C356.808014,185.908447 357.000580,184.219101 356.999725,182.555496 
	C356.994354,172.068832 356.993927,172.068008 346.540009,173.195969 
	C346.400726,173.210983 346.275635,173.357391 345.966278,173.557220 
	C345.966278,177.764542 345.966278,182.089462 345.977051,187.350861 
M346.070526,152.600708 
	C347.888763,157.152084 351.737976,154.359604 354.636139,154.761307 
	C355.271637,154.849396 356.836365,152.837234 356.889008,151.740250 
	C357.133698,146.641174 356.997345,141.523804 356.997345,136.593903 
	C354.480682,136.033936 352.468201,135.361298 350.413483,135.187103 
	C347.962769,134.979324 345.780975,135.512848 345.962646,138.815063 
	C346.202637,143.177979 346.367340,147.545029 346.070526,152.600708 
M325.629333,158.967285 
	C324.170166,159.032852 322.710968,159.098434 321.144318,159.168839 
	C320.972534,162.420914 320.814972,165.403091 320.626404,168.973022 
	C326.054047,168.973022 331.170135,168.779922 336.263519,169.036865 
	C340.033722,169.227036 341.105377,167.797226 341.124023,164.132492 
	C341.143341,160.335632 340.227448,158.508804 336.087341,158.902847 
	C332.951141,159.201370 329.763947,158.964890 325.629333,158.967285 
M324.216431,355.027008 
	C320.925323,355.027008 317.634216,355.027008 313.161682,355.027008 
	C314.260376,357.481384 314.899658,360.582733 315.820221,360.668610 
	C319.309601,360.994080 322.890076,360.342865 326.436493,360.056946 
	C326.005066,358.384003 325.573639,356.711029 324.216431,355.027008 
M328.981293,345.612152 
	C329.537170,347.707245 329.808563,349.967163 330.857269,351.776611 
	C331.106476,352.206665 333.958099,351.128448 335.612701,350.743988 
	C335.062195,348.734283 334.511719,346.724579 333.878082,344.411469 
	C334.403381,344.126221 335.729279,343.406189 337.055145,342.686188 
	C336.567230,342.159424 336.079315,341.632660 335.591400,341.105927 
	C333.005371,341.546692 328.980469,339.121368 328.981293,345.612152 
M121.637535,139.862595 
	C120.403381,139.946503 119.169220,140.030411 117.935066,140.114319 
	C117.893936,140.423615 117.852814,140.732895 117.811684,141.042175 
	C119.747955,141.424286 121.684227,141.806412 123.807899,142.225510 
	C122.973579,147.479935 127.178825,154.718887 117.321320,156.360641 
	C120.343666,156.419846 123.754272,158.703979 124.983124,154.482101 
	C125.888550,151.371384 126.288261,147.931091 125.986252,144.724976 
	C125.824974,143.012741 123.699654,141.485519 121.637535,139.862595 
M227.761658,390.034424 
	C223.937195,390.151520 220.112747,390.268616 216.288284,390.385742 
	C216.322159,391.145325 216.356049,391.904938 216.389923,392.664551 
	C220.327850,392.664551 224.266678,392.691559 228.200150,392.559021 
	C228.347137,392.554047 228.441788,390.996643 227.761658,390.034424 
M116.978027,346.006561 
	C116.728706,345.289856 116.479385,344.573120 116.430298,344.432037 
	C114.416428,345.704834 112.709045,347.519775 110.788063,347.784424 
	C108.984276,348.032898 106.954803,346.643188 103.765511,345.537964 
	C105.357918,347.453278 106.541473,349.866211 107.422768,349.760437 
	C110.712830,349.365631 115.382195,352.557800 116.978027,346.006561 
M124.083366,357.574524 
	C124.423714,359.199249 124.764069,360.823975 125.104416,362.448730 
	C125.521439,362.391541 125.938461,362.334351 126.355484,362.277161 
	C126.355484,359.092529 126.355484,355.907898 126.355484,352.723297 
	C126.008171,352.698303 125.660866,352.673340 125.313553,352.648376 
	C124.916283,354.032776 124.519012,355.417175 124.083366,357.574524 
M135.467743,347.987701 
	C133.683075,347.374817 131.898407,346.761902 129.957428,346.095337 
	C130.163406,346.795105 130.354111,349.068207 130.945511,349.177765 
	C133.889114,349.722900 136.938156,349.698730 139.950058,349.875000 
	C139.962585,349.344574 139.975113,348.814148 139.987625,348.283722 
	C138.751114,348.185699 137.514587,348.087677 135.467743,347.987701 
M125.736099,330.664337 
	C125.357437,333.804596 124.978775,336.944855 124.600113,340.085083 
	C125.443695,340.093964 126.287277,340.102814 127.130859,340.111664 
	C126.881721,337.074219 126.632584,334.036774 125.736099,330.664337 
M110.996979,162.188034 
	C107.349197,157.397934 102.630264,161.370087 97.228104,159.551773 
	C102.346802,162.850189 108.508926,157.439987 110.879585,165.625778 
	C110.978119,163.930511 111.006691,163.438858 110.996979,162.188034 
M119.859665,355.862335 
	C119.859665,357.924164 119.859665,359.986023 119.859665,362.047852 
	C120.140305,362.042084 120.420944,362.036316 120.701584,362.030548 
	C120.701584,359.076874 120.701584,356.123199 120.701584,353.169495 
	C120.493073,353.169647 120.284569,353.169800 120.076057,353.169922 
	C120.005096,353.798676 119.934128,354.427399 119.859665,355.862335 
M119.905663,331.871979 
	C119.988091,332.648315 120.070511,333.424622 120.248009,335.096344 
	C120.767113,333.786652 121.020157,333.375305 121.079468,332.937714 
	C121.144821,332.455536 121.110748,331.922302 120.954643,331.468109 
	C120.899803,331.308533 120.355339,331.317291 119.905663,331.871979 
M139.478790,344.117523 
	C139.303604,344.282043 139.128418,344.446594 138.953247,344.611145 
	C139.219254,344.681519 139.485260,344.751892 139.751266,344.822296 
	C139.788254,344.611053 139.825241,344.399811 139.478790,344.117523 
z"/>
<path fill="#020104" opacity="1.000000" stroke="none" 
	d="
M262.046631,326.866974 
	C257.071503,327.236938 252.096359,327.606873 246.294861,328.183960 
	C245.328186,344.582886 245.187881,360.774689 245.047562,376.966461 
	C240.589737,376.957184 236.131912,376.947937 231.213104,376.641785 
	C230.315216,375.896606 229.878311,375.448364 229.402008,374.533447 
	C229.410538,358.471832 229.458466,342.876862 229.941010,327.244385 
	C235.423264,327.206848 240.470886,327.206848 245.917419,327.206848 
	C245.917419,315.987671 245.917419,305.472778 245.917419,294.799774 
	C251.573898,294.535919 256.818726,294.291290 262.049988,294.027649 
	C262.036407,294.008698 261.992889,294.025513 261.798523,294.269073 
	C261.733673,294.675018 261.863190,294.837433 261.996338,295.468262 
	C262.015533,306.246765 262.031067,316.556854 262.046631,326.866974 
z"/>
<path fill="#020104" opacity="1.000000" stroke="none" 
	d="
M146.220184,229.043732 
	C146.220184,229.043732 146.352325,229.026184 146.443085,229.344604 
	C146.930801,230.444901 147.327728,231.226776 147.711426,232.468216 
	C147.679321,236.575607 147.660431,240.223419 147.400650,243.962280 
	C146.737503,244.583069 146.315262,245.112823 145.431427,245.633240 
	C133.349167,245.623917 121.728493,245.623932 109.991974,245.460449 
	C109.538132,245.412201 109.200127,245.527451 108.439819,245.637909 
	C106.045578,245.630737 104.073639,245.628372 101.828125,245.442963 
	C100.672607,245.163437 99.790665,245.066986 98.913025,244.505249 
	C98.959259,238.999268 99.001183,233.958557 99.043106,228.917847 
	C99.043114,228.917847 98.995377,229.003754 99.417664,229.117218 
	C115.300026,229.168350 130.760101,229.106049 146.220184,229.043732 
z"/>
<path fill="#050208" opacity="1.000000" stroke="none" 
	d="
M294.948334,279.363281 
	C294.948334,279.363281 294.974274,279.409668 294.685059,279.773315 
	C294.395874,284.555878 294.395874,288.974731 294.395874,294.025513 
	C283.072632,294.025513 272.532745,294.025513 261.992889,294.025513 
	C261.992889,294.025513 262.036407,294.008698 262.036377,293.557800 
	C262.036346,288.203949 262.036346,283.300934 262.036346,277.989380 
	C273.525299,277.989380 284.289001,277.989380 294.888641,278.322388 
	C294.799164,278.891357 294.873749,279.127319 294.948334,279.363281 
z"/>
<path fill="#090809" opacity="1.000000" stroke="none" 
	d="
M295.034943,227.136841 
	C295.034943,227.136841 295.004242,227.486404 294.931580,227.953781 
	C294.935638,228.604248 295.012299,228.787323 294.623901,229.074951 
	C283.757812,229.140839 273.356781,229.102203 262.874390,228.835175 
	C262.581787,228.358582 262.338959,228.146454 262.042023,227.509521 
	C262.016357,223.031067 262.013275,219.013474 262.126007,214.798218 
	C262.346802,214.289444 262.308807,213.996964 262.529053,213.482391 
	C273.245422,213.220352 283.560577,213.199005 293.947937,213.624329 
	C294.358368,218.426254 294.696655,222.781555 295.034943,227.136841 
z"/>
<path fill="#06020A" opacity="1.000000" stroke="none" 
	d="
M196.959824,131.018677 
	C201.920242,131.005173 206.880676,130.991669 212.320908,131.268661 
	C212.899780,131.726349 212.998856,131.893555 213.085739,132.385773 
	C213.077240,133.144501 213.080963,133.578186 212.990601,134.250137 
	C212.954544,134.649002 213.012589,134.809616 213.064697,135.438446 
	C213.064209,140.622284 213.069641,145.337875 212.953949,150.403992 
	C212.913391,151.481766 212.993958,152.209045 213.064819,153.349396 
	C213.059433,154.864227 213.063751,155.966003 212.949081,157.415558 
	C212.909088,158.484543 212.988083,159.205704 213.058594,160.289230 
	C213.055115,161.134796 213.060120,161.618027 212.730225,162.366150 
	C207.270218,162.742935 202.145126,162.854843 197.019196,162.500153 
	C196.998840,151.695267 196.979324,141.356979 196.959824,131.018677 
z"/>
<path fill="#06020A" opacity="1.000000" stroke="none" 
	d="
M147.992905,293.798737 
	C147.992599,289.172546 147.992294,284.546356 148.449097,279.327148 
	C159.255630,278.627747 169.605026,278.521332 180.111969,278.847168 
	C180.357559,283.841339 180.445587,288.403229 180.217438,293.199341 
	C169.265137,293.555237 158.629013,293.677002 147.992905,293.798737 
z"/>
<path fill="#050208" opacity="1.000000" stroke="none" 
	d="
M143.995316,277.801392 
	C143.870712,276.317078 143.777802,274.829285 143.615372,273.349121 
	C143.186752,269.443268 141.398621,267.577637 137.070984,267.884338 
	C133.317322,268.150421 129.496857,267.320740 125.699097,267.210907 
	C124.557335,267.177887 123.026726,267.598114 122.302025,268.387207 
	C119.186386,271.779846 116.516151,271.997040 112.913834,269.044403 
	C111.145073,267.594666 109.124023,266.452728 107.306412,265.231476 
	C104.870872,267.031403 102.650955,268.671936 100.431038,270.312500 
	C99.948639,270.036194 99.466240,269.759888 98.983841,269.483551 
	C98.983841,267.570587 98.983841,265.657593 99.123947,263.092926 
	C99.550125,262.241272 99.836189,262.041351 100.537918,261.868011 
	C102.625275,261.883148 104.296974,261.871674 106.227715,261.955139 
	C106.660767,261.990540 106.834785,261.930969 107.408607,261.886658 
	C108.875130,261.894806 109.941864,261.887665 111.459183,262.006775 
	C117.941887,262.044678 123.973991,261.956268 130.473236,261.878510 
	C136.034500,261.894440 141.128632,261.899719 146.351807,262.103943 
	C146.843079,262.576630 147.205307,262.850433 147.583527,263.573212 
	C147.632278,267.344116 147.665070,270.666046 147.494171,274.273438 
	C147.173782,275.726715 147.057098,276.894531 146.574738,278.000854 
	C145.471130,277.893402 144.733215,277.847382 143.995316,277.801392 
z"/>
<path fill="#090809" opacity="1.000000" stroke="none" 
	d="
M360.116364,246.018784 
	C360.371490,250.865082 360.780457,255.712906 360.732361,260.556183 
	C360.724213,261.375641 358.795929,262.786255 357.673065,262.873657 
	C353.803894,263.174713 349.898468,263.010559 345.474640,262.723450 
	C344.566010,261.942352 344.189636,261.461426 343.806335,260.518311 
	C343.813873,255.749710 343.828339,251.443314 344.117798,246.798035 
	C349.633972,246.312363 354.875183,246.165573 360.116364,246.018784 
z"/>
<path fill="#AC7DDE" opacity="1.000000" stroke="none" 
	d="
M345.971680,186.882614 
	C345.966278,182.089462 345.966278,177.764542 345.966278,173.557220 
	C346.275635,173.357391 346.400726,173.210983 346.540009,173.195969 
	C356.993927,172.068008 356.994354,172.068832 356.999725,182.555496 
	C357.000580,184.219101 356.808014,185.908447 357.030853,187.541397 
	C357.644867,192.041656 355.652405,193.103394 351.377747,193.169052 
	C346.795502,193.239426 345.348145,191.553299 345.971680,186.882614 
M354.054626,189.176880 
	C354.369965,185.595520 354.913452,182.011276 354.867920,178.434509 
	C354.853363,177.294968 353.274017,176.175369 352.410706,175.046646 
	C351.278229,176.178146 349.652313,177.124725 349.140961,178.489029 
	C348.532684,180.111984 349.259888,182.209641 348.742645,183.897552 
	C347.374634,188.361420 349.408356,189.695648 354.054626,189.176880 
z"/>
<path fill="#020104" opacity="1.000000" stroke="none" 
	d="
M117.218712,171.996216 
	C118.541893,171.998367 119.871437,172.084579 121.186935,171.985168 
	C123.910728,171.779327 125.140640,172.869202 125.027229,175.697235 
	C124.888145,179.165070 124.991226,182.642624 124.531998,186.555542 
	C121.848885,186.995117 119.623390,186.995117 117.218712,186.995117 
	C117.218712,181.690048 117.218712,176.843140 117.218712,171.996216 
z"/>
<path fill="#AC7DDE" opacity="1.000000" stroke="none" 
	d="
M346.317474,152.255508 
	C346.367340,147.545029 346.202637,143.177979 345.962646,138.815063 
	C345.780975,135.512848 347.962769,134.979324 350.413483,135.187103 
	C352.468201,135.361298 354.480682,136.033936 356.997345,136.593903 
	C356.997345,141.523804 357.133698,146.641174 356.889008,151.740250 
	C356.836365,152.837234 355.271637,154.849396 354.636139,154.761307 
	C351.737976,154.359604 347.888763,157.152084 346.317474,152.255508 
M349.287292,138.153046 
	C349.078094,141.907410 348.515259,145.694016 348.853058,149.398499 
	C348.970001,150.680954 351.323273,151.759476 352.655060,152.931168 
	C353.436920,151.563904 354.652954,150.270264 354.900146,148.812332 
	C355.283386,146.551819 354.967102,144.178452 355.017914,141.854477 
	C355.098022,138.189438 353.564545,136.530075 349.287292,138.153046 
z"/>
<path fill="#AC7DDE" opacity="1.000000" stroke="none" 
	d="
M326.114380,158.966888 
	C329.763947,158.964890 332.951141,159.201370 336.087341,158.902847 
	C340.227448,158.508804 341.143341,160.335632 341.124023,164.132492 
	C341.105377,167.797226 340.033722,169.227036 336.263519,169.036865 
	C331.170135,168.779922 326.054047,168.973022 320.626404,168.973022 
	C320.814972,165.403091 320.972534,162.420914 321.144318,159.168839 
	C322.710968,159.098434 324.170166,159.032852 326.114380,158.966888 
M337.863129,165.286270 
	C338.355988,162.487747 337.617004,160.796127 334.339630,160.964615 
	C331.543304,161.108383 328.705231,160.778656 325.945892,161.130890 
	C324.898041,161.264648 323.255463,162.716751 323.253998,163.570328 
	C323.252136,164.658875 324.618073,166.666565 325.430206,166.684814 
	C329.460022,166.775330 333.501648,166.341446 337.863129,165.286270 
z"/>
<path fill="#1D1D1D" opacity="1.000000" stroke="none" 
	d="
M214.088043,382.017426 
	C214.088043,385.276306 214.088043,388.535187 214.088043,391.794037 
	C213.715546,391.791382 213.343048,391.788727 212.970551,391.786102 
	C212.970551,388.100433 212.872452,384.411316 213.002731,380.730286 
	C213.100525,377.966797 211.987427,376.859161 209.223801,376.950104 
	C205.431015,377.074951 201.630569,376.967529 197.411102,376.619568 
	C197.045715,375.843445 197.102631,375.407410 197.614410,374.988281 
	C202.371780,375.005249 206.674286,375.005249 212.014359,375.005249 
	C212.014359,367.788727 212.235703,361.008179 211.923080,354.252380 
	C211.761322,350.756470 210.652771,347.304352 210.344666,343.672363 
	C211.527237,344.780853 213.004105,346.031677 213.038345,347.320831 
	C213.254318,355.456573 213.247116,363.602570 213.100510,371.741364 
	C213.047638,374.676453 213.701202,376.550110 216.992020,376.828705 
	C216.013580,378.781677 215.050812,380.399567 214.088043,382.017426 
z"/>
<path fill="#6B5C78" opacity="1.000000" stroke="none" 
	d="
M147.743668,294.065735 
	C158.629013,293.677002 169.265137,293.555237 180.507324,293.392639 
	C181.405884,293.710449 181.698349,294.069092 181.756042,294.744965 
	C181.349182,305.806824 181.151978,316.551147 181.016083,327.296265 
	C180.951843,332.374664 181.005051,337.454559 181.005051,342.932007 
	C186.582199,342.932007 191.521469,342.932007 196.442719,343.075043 
	C196.424698,343.218079 196.184250,343.377228 196.101410,343.812622 
	C195.966904,344.538940 195.915207,344.829865 195.863510,345.120819 
	C190.847488,344.595490 185.831451,344.070160 180.147064,343.474854 
	C180.147064,327.734497 180.147064,311.692474 180.147064,295.038330 
	C170.576477,295.038330 161.637085,295.075287 152.698517,295.006470 
	C150.962204,294.993103 149.229050,294.567932 147.743668,294.065735 
z"/>
<path fill="#020104" opacity="1.000000" stroke="none" 
	d="
M93.007957,261.098083 
	C92.348503,256.363159 91.689041,251.628235 91.441574,246.404877 
	C93.886665,245.928864 95.919754,245.941269 98.026062,246.169098 
	C98.198685,246.699799 98.406403,246.905823 98.712502,247.465042 
	C98.699692,251.946152 98.696815,255.964813 98.504257,260.106171 
	C98.171249,260.499847 98.088615,260.788208 97.645172,261.116394 
	C95.818443,261.125214 94.413200,261.111633 93.007957,261.098083 
z"/>
<path fill="#050306" opacity="1.000000" stroke="none" 
	d="
M214.504822,382.011353 
	C215.050812,380.399567 216.013580,378.781677 217.379807,376.725800 
	C218.840225,376.363770 219.897186,376.439758 220.992767,376.869263 
	C223.396729,379.872345 225.720459,380.083679 228.326660,377.092834 
	C229.112793,377.096832 229.562042,377.112183 230.011307,377.127533 
	C228.818466,379.696198 227.822601,382.393616 226.289261,384.739716 
	C225.922668,385.300598 223.700684,384.920837 222.444214,384.570953 
	C219.896088,383.861450 217.424622,382.876617 214.504822,382.011353 
z"/>
<path fill="#C8A3E7" opacity="1.000000" stroke="none" 
	d="
M324.679321,355.032532 
	C325.573639,356.711029 326.005066,358.384003 326.436493,360.056946 
	C322.890076,360.342865 319.309601,360.994080 315.820221,360.668610 
	C314.899658,360.582733 314.260376,357.481384 313.161682,355.027008 
	C317.634216,355.027008 320.925323,355.027008 324.679321,355.032532 
z"/>
<path fill="#AC7DDE" opacity="1.000000" stroke="none" 
	d="
M364.068176,159.137177 
	C369.720978,159.094833 375.373810,159.052475 381.511047,159.531067 
	C382.010254,169.425507 382.739166,167.827271 374.059235,168.005157 
	C373.561279,168.015366 373.062653,168.017868 372.564758,168.006485 
	C363.048981,167.789001 364.048248,169.701492 364.068176,159.137177 
M373.477600,160.988388 
	C370.786194,160.988388 368.094788,160.988388 364.119110,160.988388 
	C365.687653,163.808075 366.373718,166.446564 367.357758,166.562820 
	C371.249268,167.022568 375.246887,166.841843 379.172180,166.509445 
	C379.840057,166.452896 380.861023,164.443100 380.769104,163.421097 
	C380.691650,162.560455 379.355743,161.466980 378.355316,161.125076 
	C377.166290,160.718735 375.740356,161.005692 373.477600,160.988388 
z"/>
<path fill="#C8A3E7" opacity="1.000000" stroke="none" 
	d="
M328.983490,345.167877 
	C328.980469,339.121368 333.005371,341.546692 335.591400,341.105927 
	C336.079315,341.632660 336.567230,342.159424 337.055145,342.686188 
	C335.729279,343.406189 334.403381,344.126221 333.878082,344.411469 
	C334.511719,346.724579 335.062195,348.734283 335.612701,350.743958 
	C333.958099,351.128448 331.106476,352.206665 330.857269,351.776611 
	C329.808563,349.967163 329.537170,347.707245 328.983490,345.167877 
z"/>
<path fill="#6B5C78" opacity="1.000000" stroke="none" 
	d="
M261.798523,294.269073 
	C272.532745,294.025513 283.072632,294.025513 294.395874,294.025513 
	C294.395874,288.974731 294.395874,284.555878 294.702148,279.793640 
	C295.421234,284.473267 295.834015,289.496246 296.289612,295.040192 
	C285.078918,295.040192 274.537933,295.040192 263.263947,295.007904 
	C262.351501,294.983704 262.172119,294.991760 261.992737,294.999847 
	C261.863190,294.837433 261.733673,294.675018 261.798523,294.269073 
z"/>
<path fill="#050306" opacity="1.000000" stroke="none" 
	d="
M213.641418,128.032684 
	C217.139343,127.486420 220.637253,126.940147 224.135178,126.393875 
	C224.129150,126.016014 224.123108,125.638145 224.117081,125.260277 
	C225.445374,126.132408 226.773666,127.004532 228.477158,128.280380 
	C228.538559,129.499527 228.224777,130.314957 227.595978,131.121109 
	C226.860886,131.119858 226.440781,131.127884 225.659088,131.000854 
	C224.539917,130.943710 223.782364,131.021591 222.573044,131.090576 
	C219.411972,131.089325 216.702652,131.097000 213.862946,130.735596 
	C213.702179,129.588577 213.671799,128.810623 213.641418,128.032684 
z"/>
<path fill="#C8A3E7" opacity="1.000000" stroke="none" 
	d="
M350.835754,355.009308 
	C350.893829,356.382629 350.951874,357.755920 350.495270,359.526489 
	C347.671173,359.923401 345.321594,360.174438 343.069611,359.814606 
	C341.976929,359.640015 341.067078,358.321259 340.074493,357.520447 
	C341.022369,356.675507 341.891632,355.240814 342.933624,355.101929 
	C345.525726,354.756439 348.196564,355.001404 350.835754,355.009308 
z"/>
<path fill="#6B5C78" opacity="1.000000" stroke="none" 
	d="
M180.004501,211.954865 
	C180.002182,196.277054 179.999863,180.599243 180.297791,164.513916 
	C180.774078,164.130341 180.950134,164.154266 181.090912,164.633057 
	C181.042038,179.472275 180.997894,193.856750 181.058533,208.240799 
	C181.065140,209.806046 181.676544,211.368774 181.802002,213.164886 
	C181.244766,213.601425 180.892975,213.805740 180.357101,213.924362 
	C180.019974,213.602722 179.952087,213.344406 179.982086,212.786621 
	C179.998032,212.324661 180.001266,212.139771 180.004501,211.954865 
z"/>
<path fill="#6B5C78" opacity="1.000000" stroke="none" 
	d="
M359.914185,245.621780 
	C354.875183,246.165573 349.633972,246.312363 343.792053,246.781052 
	C342.797791,246.699921 342.404266,246.296890 342.218414,245.531219 
	C342.564209,239.890533 342.702362,234.612473 343.100952,229.223724 
	C343.542450,229.059769 343.723450,229.006531 343.904419,228.953308 
	C344.365784,234.000244 344.827179,239.047165 345.333496,244.585434 
	C349.973297,244.791748 354.842651,245.008270 359.914185,245.621780 
z"/>
<path fill="#1D1D1D" opacity="1.000000" stroke="none" 
	d="
M122.049133,139.868698 
	C123.699654,141.485519 125.824974,143.012741 125.986252,144.724976 
	C126.288261,147.931091 125.888550,151.371384 124.983124,154.482101 
	C123.754272,158.703979 120.343666,156.419846 117.321320,156.360641 
	C127.178825,154.718887 122.973579,147.479935 123.807899,142.225510 
	C121.684227,141.806412 119.747955,141.424286 117.811684,141.042175 
	C117.852814,140.732895 117.893936,140.423615 117.935066,140.114319 
	C119.169220,140.030411 120.403381,139.946503 122.049133,139.868698 
z"/>
<path fill="#B2B2B3" opacity="1.000000" stroke="none" 
	d="
M143.530853,277.865967 
	C144.733215,277.847382 145.471130,277.893402 146.565308,278.202545 
	C146.921585,278.465698 146.890762,278.867706 146.890762,278.867706 
	C131.136002,278.929657 115.381241,278.998993 99.626434,279.016602 
	C99.170860,279.017090 98.714684,278.469849 99.050507,278.055298 
	C101.563179,277.889343 103.284134,277.846069 105.005089,277.802765 
	C117.692192,277.845367 130.379288,277.887939 143.530853,277.865967 
z"/>
<path fill="#B2B2B3" opacity="1.000000" stroke="none" 
	d="
M295.400391,279.218445 
	C294.873749,279.127319 294.799164,278.891357 294.871033,278.355347 
	C295.017487,278.055298 294.944397,278.034790 295.414246,277.984772 
	C311.565399,277.918457 327.246674,277.902161 343.180603,277.930054 
	C343.604218,277.976654 343.775208,277.979034 343.946228,277.981415 
	C342.502136,278.338287 341.059784,278.997070 339.613678,279.005371 
	C325.026978,279.089111 310.439606,279.066376 295.400391,279.218445 
z"/>
<path fill="#463855" opacity="1.000000" stroke="none" 
	d="
M245.380371,376.708984 
	C245.187881,360.774689 245.328186,344.582886 245.842041,328.166443 
	C246.130005,342.471863 246.051285,357.001984 245.949295,371.531952 
	C245.937775,373.172272 245.795074,374.811707 245.380371,376.708984 
z"/>
<path fill="#E0E0E0" opacity="1.000000" stroke="none" 
	d="
M343.755798,228.542068 
	C343.723450,229.006531 343.542450,229.059769 342.643066,229.179764 
	C326.267242,229.141174 310.609772,229.035843 294.990662,228.926102 
	C295.029022,228.921692 295.088989,228.970413 295.088989,228.970413 
	C295.012299,228.787323 294.935638,228.604248 294.911499,228.128082 
	C311.178406,227.933624 327.392792,228.032227 343.755798,228.542068 
z"/>
<path fill="#1D1D1D" opacity="1.000000" stroke="none" 
	d="
M95.947662,166.936508 
	C95.511658,165.000839 95.075653,163.065186 94.639656,161.129517 
	C98.836510,165.777603 103.723915,167.675003 109.674744,167.784668 
	C105.031502,169.097900 100.558128,170.422699 96.202042,167.283295 
	C96.383163,166.416824 96.399445,166.106049 96.415718,165.795273 
	C96.259705,166.175690 96.103683,166.556091 95.947662,166.936508 
z"/>
<path fill="#463855" opacity="1.000000" stroke="none" 
	d="
M245.754608,131.916428 
	C245.849503,147.592255 245.944412,163.268097 246.027222,179.459656 
	C246.015152,179.975388 245.880005,180.090149 245.741547,179.993835 
	C245.397141,179.794312 245.235199,179.643753 245.088257,178.950043 
	C245.100204,162.949951 245.141220,147.445663 245.324890,131.925293 
	C245.467560,131.909195 245.754608,131.916428 245.754608,131.916428 
z"/>
<path fill="#E0E0E0" opacity="1.000000" stroke="none" 
	d="
M145.982147,228.662598 
	C130.760101,229.106049 115.300026,229.168350 99.373001,229.137711 
	C99.395470,228.705841 99.885506,228.070068 100.374199,228.071106 
	C115.497589,228.102905 130.620834,228.196976 145.982147,228.662598 
z"/>
<path fill="#6B5C78" opacity="1.000000" stroke="none" 
	d="
M147.169525,278.871704 
	C146.890762,278.867706 146.921585,278.465698 146.931000,278.264008 
	C147.057098,276.894531 147.173782,275.726715 147.769928,274.530090 
	C148.775879,277.459442 150.815033,277.772217 153.386963,277.800598 
	C162.243973,277.898376 171.098770,278.194427 179.954422,278.414917 
	C169.605026,278.521332 159.255630,278.627747 148.450317,278.861328 
	C147.812363,278.950958 147.630325,278.913330 147.169525,278.871704 
z"/>
<path fill="#C8A3E7" opacity="1.000000" stroke="none" 
	d="
M335.890778,362.977478 
	C335.890778,362.977509 336.029083,363.403778 336.027802,363.942139 
	C336.044373,364.690216 336.062256,364.899933 336.080139,365.109619 
	C336.080139,365.109619 336.050232,365.011322 335.802338,365.289246 
	C335.347321,367.357056 335.244202,369.168457 334.880524,370.925964 
	C334.740570,371.602295 334.107483,372.497437 333.517120,372.669891 
	C332.921509,372.843842 331.506409,372.305878 331.472626,371.975433 
	C331.222717,369.529663 330.792297,366.947449 331.374115,364.650055 
	C331.597534,363.767822 334.311584,363.516357 335.890778,362.977478 
z"/>
<path fill="#050306" opacity="1.000000" stroke="none" 
	d="
M228.161255,390.098572 
	C228.441788,390.996643 228.347137,392.554047 228.200150,392.559021 
	C224.266678,392.691559 220.327850,392.664551 216.389923,392.664551 
	C216.356049,391.904938 216.322159,391.145325 216.288284,390.385742 
	C220.112747,390.268616 223.937195,390.151520 228.161255,390.098572 
z"/>
<path fill="#D2ADFC" opacity="1.000000" stroke="none" 
	d="
M335.793610,362.575592 
	C334.311584,363.516357 331.597534,363.767822 331.374115,364.650055 
	C330.792297,366.947449 331.222717,369.529663 331.472626,371.975433 
	C331.506409,372.305878 332.921509,372.843842 333.517120,372.669891 
	C334.107483,372.497437 334.740570,371.602295 334.880524,370.925964 
	C335.244202,369.168457 335.347321,367.357056 335.853363,365.295105 
	C336.152283,367.807648 336.152283,370.592194 336.152283,373.684723 
	C333.790131,373.684723 331.729767,373.684723 329.618378,373.684723 
	C327.391266,363.578705 328.348328,361.720001 335.793610,362.575592 
z"/>
<path fill="#050306" opacity="1.000000" stroke="none" 
	d="
M132.998779,165.001221 
	C132.389038,163.868835 131.534988,162.780151 131.319839,161.577179 
	C131.256058,161.220612 132.953354,160.175461 133.908524,160.077377 
	C137.346100,159.724335 140.809601,159.550735 144.266724,159.482956 
	C147.335312,159.422775 147.931870,162.684326 146.034958,166.300659 
	C144.925812,164.730774 143.753281,161.466034 142.287689,161.328674 
	C139.172501,161.036774 134.702820,158.910812 133.057007,164.615891 
	C133.000000,165.000000 132.998779,165.001221 132.998779,165.001221 
z"/>
<path fill="#6B5C78" opacity="1.000000" stroke="none" 
	d="
M245.462982,131.666656 
	C245.754608,131.916428 245.467560,131.909195 244.871811,131.743347 
	C239.296738,132.041870 234.317429,132.506226 229.087418,132.811249 
	C228.528152,132.144730 228.219574,131.637573 227.910980,131.130402 
	C228.224777,130.314957 228.538559,129.499527 228.804352,128.337891 
	C228.756348,123.851402 228.756348,119.711121 228.756348,115.570839 
	C229.116547,115.552246 229.476746,115.533653 229.836945,115.515060 
	C229.836945,120.574020 229.836945,125.632973 229.836945,131.416870 
	C235.384293,131.416870 240.277817,131.416870 245.462982,131.666656 
z"/>
<path fill="#D2ADFC" opacity="1.000000" stroke="none" 
	d="
M363.636810,159.229172 
	C364.048248,169.701492 363.048981,167.789001 372.564758,168.006485 
	C373.062653,168.017868 373.561279,168.015366 374.059235,168.005157 
	C382.739166,167.827271 382.010254,169.425507 381.969727,159.608185 
	C382.449097,162.211914 382.954224,165.259445 383.525421,168.705597 
	C376.376038,168.705597 369.856049,168.705597 363.205444,168.705597 
	C363.205444,165.518219 363.205444,162.419693 363.636810,159.229172 
z"/>
<path fill="#090809" opacity="1.000000" stroke="none" 
	d="
M116.977798,346.390137 
	C115.382195,352.557800 110.712830,349.365631 107.422768,349.760437 
	C106.541473,349.866211 105.357918,347.453278 103.765511,345.537964 
	C106.954803,346.643188 108.984276,348.032898 110.788063,347.784424 
	C112.709045,347.519775 114.416428,345.704834 116.430298,344.432037 
	C116.479385,344.573120 116.728706,345.289856 116.977798,346.390137 
z"/>
<path fill="#B2B2B3" opacity="1.000000" stroke="none" 
	d="
M179.535461,211.970047 
	C180.001266,212.139771 179.998032,212.324661 179.607742,212.799927 
	C178.476593,213.150925 177.732513,213.211533 176.526642,213.192154 
	C170.900955,213.104080 165.733795,212.979187 160.574234,213.124435 
	C156.351669,213.243332 152.138153,213.684174 147.726547,213.980042 
	C147.532471,213.977798 147.145264,213.950363 147.145264,213.950363 
	C148.231384,213.297516 149.308777,212.095291 150.404968,212.077927 
	C159.956879,211.926575 169.512146,211.987427 179.535461,211.970047 
z"/>
<path fill="#6B5C78" opacity="1.000000" stroke="none" 
	d="
M344.251801,277.700317 
	C343.775208,277.979034 343.604218,277.976654 343.277863,277.480133 
	C343.079987,272.010101 343.037506,267.034180 343.057434,261.803650 
	C343.110046,261.374481 343.100189,261.199982 343.267517,260.957397 
	C343.444702,260.889313 343.813232,260.980499 343.813232,260.980499 
	C344.189636,261.461426 344.566010,261.942352 345.043793,262.718475 
	C344.949219,267.815521 344.753296,272.617401 344.251801,277.700317 
z"/>
<path fill="#B2B2B3" opacity="1.000000" stroke="none" 
	d="
M195.926666,345.578217 
	C195.915207,344.829865 195.966904,344.538940 196.355743,344.016388 
	C196.838593,344.194794 196.984268,344.604858 197.067932,345.479004 
	C197.057129,355.619202 197.108337,365.295258 197.159546,374.971344 
	C197.102631,375.407410 197.045715,375.843445 196.936676,376.606018 
	C196.590134,374.760712 196.069641,372.591797 196.041626,370.416565 
	C195.936966,362.290710 195.993652,354.162781 195.926666,345.578217 
z"/>
<path fill="#B2B2B3" opacity="1.000000" stroke="none" 
	d="
M293.875763,213.177673 
	C283.560577,213.199005 273.245422,213.220352 262.603271,213.028503 
	C262.288605,212.509735 262.300903,212.204132 262.508545,211.876862 
	C262.703888,211.855179 263.076355,211.980637 263.076355,211.980637 
	C273.587952,212.035858 284.099548,212.091095 294.495911,212.603760 
	C294.212402,213.100037 294.044098,213.138855 293.875763,213.177673 
z"/>
<path fill="#E0E0E0" opacity="1.000000" stroke="none" 
	d="
M261.996338,295.468262 
	C262.172119,294.991760 262.351501,294.983704 262.800049,294.986664 
	C262.994659,305.512268 262.920166,316.026794 262.446136,326.704163 
	C262.031067,316.556854 262.015533,306.246765 261.996338,295.468262 
z"/>
<path fill="#B2B2B3" opacity="1.000000" stroke="none" 
	d="
M196.563126,131.202179 
	C196.979324,141.356979 196.998840,151.695267 196.758759,162.557999 
	C196.325104,163.046326 196.151016,163.010223 195.973145,162.973572 
	C195.969391,162.973007 195.957199,162.957336 195.957199,162.957336 
	C196.026932,152.433456 196.096680,141.909576 196.563126,131.202179 
z"/>
<path fill="#E0E0E0" opacity="1.000000" stroke="none" 
	d="
M263.035522,211.514862 
	C263.076355,211.980637 262.703888,211.855179 262.403687,211.831146 
	C262.103485,211.807098 261.978638,211.998840 261.992065,211.530518 
	C261.955353,201.050781 261.905212,191.039368 261.937988,180.806458 
	C262.020905,180.584961 262.104736,180.119431 262.104736,180.119431 
	C262.402618,182.282394 262.930573,184.442490 262.957397,186.608810 
	C263.058319,194.754471 262.995911,202.902176 263.035522,211.514862 
z"/>
<path fill="#E6CAFD" opacity="1.000000" stroke="none" 
	d="
M350.721375,354.589905 
	C348.196564,355.001404 345.525726,354.756439 342.933624,355.101929 
	C341.891632,355.240814 341.022369,356.675507 340.074493,357.520447 
	C341.067078,358.321259 341.976929,359.640015 343.069611,359.814606 
	C345.321594,360.174438 347.671173,359.923401 350.432556,359.933289 
	C347.060455,360.447937 343.236359,360.953033 339.159607,361.491516 
	C339.159607,358.556427 339.159607,356.488068 339.159607,354.170502 
	C343.084015,354.170502 346.845490,354.170502 350.721375,354.589905 
z"/>
<path fill="#1D1D1D" opacity="1.000000" stroke="none" 
	d="
M124.102554,357.188049 
	C124.519012,355.417175 124.916283,354.032776 125.313553,352.648376 
	C125.660866,352.673340 126.008171,352.698303 126.355484,352.723297 
	C126.355484,355.907898 126.355484,359.092529 126.355484,362.277161 
	C125.938461,362.334351 125.521439,362.391541 125.104416,362.448730 
	C124.764069,360.823975 124.423714,359.199249 124.102554,357.188049 
z"/>
<path fill="#B2B2B3" opacity="1.000000" stroke="none" 
	d="
M117.010834,171.641449 
	C117.218712,176.843140 117.218712,181.690048 117.218712,186.995117 
	C119.623390,186.995117 121.848885,186.995117 124.525436,187.026138 
	C122.188988,187.491425 119.401497,187.925690 115.646378,188.510696 
	C116.058136,182.378632 116.430542,176.832657 117.010834,171.641449 
z"/>
<path fill="#6B5C78" opacity="1.000000" stroke="none" 
	d="
M293.947937,213.624329 
	C294.044098,213.138855 294.212402,213.100037 294.635712,213.016663 
	C294.923401,217.407272 294.956085,221.842438 295.011841,226.707214 
	C294.696655,222.781555 294.358368,218.426254 293.947937,213.624329 
z"/>
<path fill="#090809" opacity="1.000000" stroke="none" 
	d="
M135.872910,347.988647 
	C137.514587,348.087677 138.751114,348.185699 139.987625,348.283722 
	C139.975113,348.814148 139.962585,349.344574 139.950058,349.875000 
	C136.938156,349.698730 133.889114,349.722900 130.945511,349.177765 
	C130.354111,349.068207 130.163406,346.795105 129.957428,346.095337 
	C131.898407,346.761902 133.683075,347.374817 135.872910,347.988647 
z"/>
<path fill="#1D1D1D" opacity="1.000000" stroke="none" 
	d="
M126.059776,330.831848 
	C126.632584,334.036774 126.881721,337.074219 127.130859,340.111664 
	C126.287277,340.102814 125.443695,340.093964 124.600113,340.085083 
	C124.978775,336.944855 125.357437,333.804596 126.059776,330.831848 
z"/>
<path fill="#6B5C78" opacity="1.000000" stroke="none" 
	d="
M147.040741,214.408569 
	C147.145264,213.950363 147.532471,213.977798 147.818085,214.436005 
	C148.173676,218.941025 148.243652,222.987869 148.276016,227.268341 
	C148.230804,227.876022 148.408356,228.108749 148.738205,228.220581 
	C148.705338,228.240967 148.718262,228.317230 148.792343,228.568481 
	C148.919037,228.986282 148.971649,229.152817 148.971161,229.625122 
	C148.520248,230.623489 148.122452,231.316055 147.724655,232.008636 
	C147.327728,231.226776 146.930801,230.444901 146.507660,229.328094 
	C146.633041,224.284348 146.784637,219.575562 147.040741,214.408569 
z"/>
<path fill="#1D1D1D" opacity="1.000000" stroke="none" 
	d="
M111.016121,162.567612 
	C111.006691,163.438858 110.978119,163.930511 110.879585,165.625778 
	C108.508926,157.439987 102.346802,162.850189 97.228104,159.551773 
	C102.630264,161.370087 107.349197,157.397934 111.016121,162.567612 
z"/>
<path fill="#463855" opacity="1.000000" stroke="none" 
	d="
M261.633606,180.089569 
	C262.104736,180.119431 262.020905,180.584961 261.481262,180.781891 
	C255.942230,180.994766 250.942871,181.010742 245.916901,181.129425 
	C245.890289,181.232132 245.680252,181.201721 245.769073,180.930878 
	C245.865280,180.470078 245.872635,180.280106 245.880005,180.090149 
	C245.880005,180.090149 246.015152,179.975388 246.081650,179.916504 
	C251.152939,179.924988 256.157715,179.992355 261.633606,180.089569 
z"/>
<path fill="#B2B2B3" opacity="1.000000" stroke="none" 
	d="
M98.652328,229.121552 
	C99.001183,233.958557 98.959259,238.999268 98.684311,244.479874 
	C98.451302,244.919769 97.997612,244.997757 98.018738,245.017029 
	C98.039856,245.036301 98.082741,245.074127 98.082741,245.074127 
	C98.142342,239.824509 98.201942,234.574875 98.652328,229.121552 
z"/>
<path fill="#463855" opacity="1.000000" stroke="none" 
	d="
M92.566132,261.130005 
	C94.413200,261.111633 95.818443,261.125214 97.670181,261.313049 
	C98.116669,261.487274 98.071877,261.881805 98.071877,261.881805 
	C93.529472,261.881805 88.987061,261.881805 84.444656,261.881805 
	C84.444939,261.641846 84.445221,261.401917 84.445503,261.161957 
	C87.005104,261.161957 89.564713,261.161957 92.566132,261.130005 
z"/>
<path fill="#B2B2B3" opacity="1.000000" stroke="none" 
	d="
M181.126175,164.178192 
	C180.950134,164.154266 180.774078,164.130341 180.338684,164.045929 
	C185.063385,163.661179 190.047470,163.336914 195.494370,162.985001 
	C195.957199,162.957336 195.969391,162.973007 195.996719,163.240143 
	C196.000031,163.684052 195.976013,163.860840 195.491547,164.054047 
	C190.396118,164.106369 185.761139,164.142273 181.126175,164.178192 
z"/>
<path fill="#B2B2B3" opacity="1.000000" stroke="none" 
	d="
M97.952850,245.953674 
	C95.919754,245.941269 93.886665,245.928864 91.426163,246.003876 
	C89.929077,246.034973 88.859390,245.978653 87.025238,245.916672 
	C85.506981,245.970169 84.753197,246.029327 83.999413,246.088470 
	C83.547798,245.968277 83.096176,245.848099 82.644554,245.727921 
	C82.639931,245.509476 82.635300,245.291046 82.630669,245.072617 
	C87.465828,245.072617 92.300980,245.072617 97.609436,245.073364 
	C98.082741,245.074127 98.039856,245.036301 98.004189,245.255859 
	C97.968521,245.475403 97.952850,245.953674 97.952850,245.953674 
z"/>
<path fill="#6B5C78" opacity="1.000000" stroke="none" 
	d="
M213.591522,127.593460 
	C213.671799,128.810623 213.702179,129.588577 213.781982,130.950668 
	C213.654572,131.804474 213.410080,131.979782 213.097946,132.060745 
	C212.998856,131.893555 212.899780,131.726349 212.771790,131.268982 
	C212.968018,127.120422 213.193176,123.262047 213.459290,118.966782 
	C213.500229,118.529907 213.802185,118.560287 213.802185,118.560287 
	C213.715317,121.424942 213.628464,124.289589 213.591522,127.593460 
z"/>
<path fill="#050208" opacity="1.000000" stroke="none" 
	d="
M104.895660,277.468201 
	C103.284134,277.846069 101.563179,277.889343 99.418091,277.855835 
	C100.629723,274.916382 102.662796,275.619568 104.895660,277.468201 
z"/>
<path fill="#1D1D1D" opacity="1.000000" stroke="none" 
	d="
M119.861420,355.459229 
	C119.934128,354.427399 120.005096,353.798676 120.076057,353.169922 
	C120.284569,353.169800 120.493073,353.169647 120.701584,353.169495 
	C120.701584,356.123199 120.701584,359.076874 120.701584,362.030548 
	C120.420944,362.036316 120.140305,362.042084 119.859665,362.047852 
	C119.859665,359.986023 119.859665,357.924164 119.861420,355.459229 
z"/>
<path fill="#050306" opacity="1.000000" stroke="none" 
	d="
M133.000610,164.999496 
	C133.576309,165.590286 134.159286,166.174759 134.698441,166.797180 
	C134.720657,166.822815 134.331787,167.204529 134.134445,167.420349 
	C133.761887,166.832611 133.389328,166.244888 133.007782,165.329193 
	C132.998779,165.001221 133.000000,165.000000 133.000610,164.999496 
z"/>
<path fill="#020104" opacity="1.000000" stroke="none" 
	d="
M84.067215,246.399658 
	C84.753197,246.029327 85.506981,245.970169 86.630676,246.000793 
	C86.045395,246.297318 85.090210,246.504089 84.067215,246.399658 
z"/>
<path fill="#463855" opacity="1.000000" stroke="none" 
	d="
M230.176514,377.036438 
	C229.562042,377.112183 229.112793,377.096832 228.294098,376.819946 
	C227.950180,376.377197 227.975723,376.195984 228.099701,375.690552 
	C228.612564,375.244263 229.026978,375.122192 229.441406,375.000122 
	C229.878311,375.448364 230.315216,375.896606 230.731186,376.604614 
	C230.710266,376.864380 230.341736,376.945374 230.176514,377.036438 
z"/>
<path fill="#6B5C78" opacity="1.000000" stroke="none" 
	d="
M98.139923,262.112732 
	C98.071877,261.881805 98.116669,261.487274 98.091667,261.290619 
	C98.088615,260.788208 98.171249,260.499847 98.752548,260.273132 
	C99.501099,260.825378 99.811676,261.333374 100.122253,261.841400 
	C99.836189,262.041351 99.550125,262.241272 99.115265,262.656952 
	C98.613533,262.839905 98.360687,262.663574 98.139923,262.112732 
z"/>
<path fill="#1D1D1D" opacity="1.000000" stroke="none" 
	d="
M119.970055,331.560577 
	C120.355339,331.317291 120.899803,331.308533 120.954643,331.468109 
	C121.110748,331.922302 121.144821,332.455536 121.079468,332.937714 
	C121.020157,333.375305 120.767113,333.786652 120.248009,335.096344 
	C120.070511,333.424622 119.988091,332.648315 119.970055,331.560577 
z"/>
<path fill="#090809" opacity="1.000000" stroke="none" 
	d="
M139.670502,344.153046 
	C139.825241,344.399811 139.788254,344.611053 139.751266,344.822296 
	C139.485260,344.751892 139.219254,344.681519 138.953247,344.611145 
	C139.128418,344.446594 139.303604,344.282043 139.670502,344.153046 
z"/>
<path fill="#050306" opacity="1.000000" stroke="none" 
	d="
M213.851807,118.216965 
	C213.802185,118.560287 213.500229,118.529907 213.350464,118.549606 
	C213.155411,117.837563 213.110123,117.105827 213.064835,116.374084 
	C213.238922,116.344101 213.413010,116.314117 213.587097,116.284134 
	C213.691879,116.813965 213.796661,117.343796 213.851807,118.216965 
z"/>
<path fill="#D2ADFC" opacity="1.000000" stroke="none" 
	d="
M336.336365,365.013794 
	C336.062256,364.899933 336.044373,364.690216 336.043915,364.165649 
	C336.238373,364.206482 336.415466,364.562195 336.336365,365.013794 
z"/>
<path fill="#D2ADFC" opacity="1.000000" stroke="none" 
	d="
M262.010223,214.995895 
	C262.013275,219.013474 262.016357,223.031067 261.956665,227.845306 
	C261.917633,228.871872 261.941315,229.101761 261.980133,229.778473 
	C261.995270,235.296585 261.995270,240.367874 261.995270,246.037674 
	C267.335144,246.037674 272.383759,244.808777 276.379608,246.335449 
	C281.905151,248.446579 277.640015,254.470276 279.095123,258.443573 
	C279.610626,259.851288 281.245850,261.685150 282.529114,261.821014 
	C286.622162,262.254547 290.789948,261.981903 294.864929,262.446228 
	C294.848755,267.951874 294.896576,272.993347 294.944397,278.034790 
	C294.944397,278.034790 295.017487,278.055298 295.035095,278.022339 
	C284.289001,277.989380 273.525299,277.989380 262.036346,277.989380 
	C262.036346,283.300934 262.036346,288.203949 262.049957,293.576782 
	C256.818726,294.291290 251.573898,294.535919 245.917419,294.799774 
	C245.917419,305.472778 245.917419,315.987671 245.917419,327.206848 
	C240.470886,327.206848 235.423264,327.206848 229.444611,327.176819 
	C225.018875,327.108032 221.505081,326.824524 218.034470,327.095062 
	C214.063599,327.404572 212.792053,325.941254 212.931854,321.989502 
	C213.202408,314.341919 212.954941,306.677368 213.029343,299.020905 
	C213.062714,295.588806 212.456024,293.704834 208.154877,294.573242 
	C204.635742,295.283844 200.871231,294.779175 197.129303,294.367065 
	C197.017075,284.766235 196.861008,275.609192 197.030701,266.458191 
	C197.096191,262.925873 195.835388,261.777496 192.391159,261.908905 
	C186.739578,262.124573 181.073853,261.973877 175.414093,261.968933 
	C163.348953,261.958374 163.454453,261.960358 163.947250,249.844742 
	C164.074448,246.717682 165.280182,245.854721 168.169220,245.899567 
	C175.824692,246.018356 183.484818,245.847992 191.139923,245.978439 
	C195.244293,246.048386 197.119186,244.730591 197.058899,240.203110 
	C196.913498,229.284439 197.109512,229.117859 208.337021,229.117783 
	C212.186935,229.117752 213.140823,227.736404 213.076584,224.146530 
	C212.889023,213.662674 213.010818,203.173309 213.010773,192.686096 
	C213.010712,180.061646 213.010452,180.061829 225.381805,180.025330 
	C226.547043,180.021881 227.712265,180.014389 229.262756,180.171509 
	C234.992096,180.623398 240.336182,180.912567 245.680252,181.201721 
	C245.680252,181.201721 245.890289,181.232132 245.859161,181.592682 
	C245.867874,191.997330 245.907684,202.041458 246.026306,212.428406 
	C246.762604,212.794083 247.420074,212.816925 248.527084,212.846329 
	C251.989426,212.849274 255.002258,212.845657 258.291473,213.024292 
	C259.715332,213.803009 260.862762,214.399460 262.010223,214.995895 
z"/>
<path fill="#B670F8" opacity="1.000000" stroke="none" 
	d="
M197.215500,294.813293 
	C200.871231,294.779175 204.635742,295.283844 208.154877,294.573242 
	C212.456024,293.704834 213.062714,295.588806 213.029343,299.020905 
	C212.954941,306.677368 213.202408,314.341919 212.931854,321.989502 
	C212.792053,325.941254 214.063599,327.404572 218.034470,327.095062 
	C221.505081,326.824524 225.018875,327.108032 229.009979,327.214355 
	C229.458466,342.876862 229.410538,358.471832 229.402008,374.533447 
	C229.026978,375.122192 228.612564,375.244263 227.658173,375.742096 
	C225.063522,376.250458 223.008835,376.383087 220.954147,376.515717 
	C219.897186,376.439758 218.840225,376.363770 217.395477,376.390717 
	C213.701202,376.550110 213.047638,374.676453 213.100510,371.741364 
	C213.247116,363.602570 213.254318,355.456573 213.038345,347.320831 
	C213.004105,346.031677 211.527237,344.780853 209.906067,343.531403 
	C205.751099,343.633575 202.407425,343.716644 198.637115,343.606079 
	C197.603104,343.264282 196.995697,343.116150 196.577972,342.537781 
	C196.779861,326.463501 196.792099,310.819489 196.906418,295.084106 
	C197.008499,294.992767 197.215500,294.813293 197.215500,294.813293 
z"/>
<path fill="#B670F8" opacity="1.000000" stroke="none" 
	d="
M228.877502,180.008789 
	C227.712265,180.014389 226.547043,180.021881 225.381805,180.025330 
	C213.010452,180.061829 213.010712,180.061646 213.010773,192.686096 
	C213.010818,203.173309 212.889023,213.662674 213.076584,224.146530 
	C213.140823,227.736404 212.186935,229.117752 208.337021,229.117783 
	C197.109512,229.117859 196.913498,229.284439 197.058899,240.203110 
	C197.119186,244.730591 195.244293,246.048386 191.139923,245.978439 
	C183.484818,245.847992 175.824692,246.018356 168.169220,245.899567 
	C165.280182,245.854721 164.074448,246.717682 163.947250,249.844742 
	C163.454453,261.960358 163.348953,261.958374 175.414093,261.968933 
	C181.073853,261.973877 186.739578,262.124573 192.391159,261.908905 
	C195.835388,261.777496 197.096191,262.925873 197.030701,266.458191 
	C196.861008,275.609192 197.017075,284.766235 197.129303,294.367065 
	C197.215500,294.813293 197.008499,294.992767 196.522217,294.969788 
	C191.354233,294.773804 186.672531,294.600800 181.990814,294.427765 
	C181.698349,294.069092 181.405884,293.710449 180.823517,293.158478 
	C180.445587,288.403229 180.357559,283.841339 180.111969,278.847168 
	C171.098770,278.194427 162.243973,277.898376 153.386963,277.800598 
	C150.815033,277.772217 148.775879,277.459442 147.973633,274.244629 
	C147.665070,270.666046 147.632278,267.344116 147.664993,263.285522 
	C147.227905,262.334229 146.725342,262.119629 146.222763,261.905029 
	C141.128632,261.899719 136.034500,261.894440 130.124680,261.670959 
	C123.208855,261.595306 117.108727,261.737915 111.008591,261.880493 
	C109.941864,261.887665 108.875130,261.894806 107.317856,261.738892 
	C106.541100,261.670593 106.254890,261.765411 105.968674,261.860199 
	C104.296974,261.871674 102.625275,261.883148 100.537918,261.868011 
	C99.811676,261.333374 99.501099,260.825378 98.942230,260.150391 
	C98.696815,255.964813 98.699692,251.946152 99.035637,247.286591 
	C100.279701,246.305801 101.190697,245.965912 102.101692,245.626007 
	C104.073639,245.628372 106.045578,245.630737 108.752182,245.740417 
	C109.693817,245.773132 109.900810,245.698547 110.107811,245.623947 
	C121.728493,245.623932 133.349167,245.623917 145.753601,245.751190 
	C146.905426,245.209412 147.273499,244.540329 147.641556,243.871231 
	C147.660431,240.223419 147.679321,236.575607 147.711426,232.468216 
	C148.122452,231.316055 148.520248,230.623489 149.436737,229.595932 
	C159.673462,229.240829 169.391541,229.220703 179.294815,229.382721 
	C179.780899,228.958817 180.081772,228.352753 180.403320,227.327637 
	C180.296188,225.253494 180.168381,223.598434 180.193298,221.548889 
	C180.249542,219.762314 180.153061,218.370224 180.227722,216.636963 
	C180.446289,215.533875 180.493729,214.771973 180.541168,214.010071 
	C180.892975,213.805740 181.244766,213.601425 182.138031,213.143616 
	C183.128571,212.893967 183.577667,212.897797 184.225998,213.093597 
	C185.265961,213.151657 186.106689,213.017792 187.297424,212.874329 
	C188.114273,212.870239 188.581100,212.875763 189.189636,213.064117 
	C189.867554,213.123322 190.403717,212.999710 191.295074,212.864716 
	C192.124008,212.859970 192.597733,212.866577 193.275269,213.084167 
	C194.540375,212.855286 195.601685,212.415436 196.716370,211.617020 
	C196.798828,210.775986 196.827896,210.293503 197.003876,209.790588 
	C197.150803,209.770142 197.203537,209.360977 197.203537,209.360977 
	C197.203537,209.360977 196.850815,209.188202 196.832489,208.708038 
	C196.818466,197.482071 196.822754,186.736252 196.962311,175.605667 
	C197.008133,174.148315 196.918686,173.075714 196.823883,171.571991 
	C196.816452,169.409576 196.814362,167.678329 197.147430,165.662811 
	C201.379517,165.124619 205.304077,165.064270 209.158661,164.513916 
	C210.547333,164.315659 211.767868,162.939743 213.065125,162.101242 
	C213.060120,161.618027 213.055115,161.134796 213.226044,160.087982 
	C213.290665,158.705505 213.179367,157.886627 213.068069,157.067764 
	C213.063751,155.966003 213.059433,154.864227 213.233246,153.145721 
	C213.299271,151.703827 213.187164,150.878647 213.075058,150.053482 
	C213.069641,145.337875 213.064209,140.622284 213.199585,135.354721 
	C213.481537,134.443573 213.396301,134.179947 213.084671,134.011871 
	C213.080963,133.578186 213.077240,133.144501 213.085739,132.385773 
	C213.410080,131.979782 213.654572,131.804474 213.912369,131.319748 
	C216.702652,131.097000 219.411972,131.089325 222.788239,131.255829 
	C224.310379,131.331955 225.165527,131.233917 226.020691,131.135895 
	C226.440781,131.127884 226.860886,131.119858 227.595978,131.121109 
	C228.219574,131.637573 228.528152,132.144730 229.120819,133.282425 
	C229.396164,148.868790 229.387405,163.824646 229.197968,179.064941 
	C228.970688,179.569199 228.924088,179.788986 228.877502,180.008789 
z"/>
<path fill="#6B5C78" opacity="1.000000" stroke="none" 
	d="
M101.828125,245.442947 
	C101.190697,245.965912 100.279701,246.305801 99.045570,246.824127 
	C98.406403,246.905823 98.198685,246.699799 98.026062,246.169098 
	C97.952850,245.953674 97.968521,245.475403 97.983063,245.236572 
	C97.997612,244.997757 98.451302,244.919769 98.680008,244.945145 
	C99.790665,245.066986 100.672607,245.163437 101.828125,245.442947 
z"/>
<path fill="#6B5C78" opacity="1.000000" stroke="none" 
	d="
M147.400650,243.962280 
	C147.273499,244.540329 146.905426,245.209412 146.215195,245.760544 
	C146.315262,245.112823 146.737503,244.583069 147.400650,243.962280 
z"/>
<path fill="#6B5C78" opacity="1.000000" stroke="none" 
	d="
M109.991974,245.460449 
	C109.900810,245.698547 109.693817,245.773132 109.174469,245.745209 
	C109.200127,245.527451 109.538132,245.412201 109.991974,245.460449 
z"/>
<path fill="#E6CAFD" opacity="1.000000" stroke="none" 
	d="
M294.928894,261.981995 
	C290.789948,261.981903 286.622162,262.254547 282.529114,261.821014 
	C281.245850,261.685150 279.610626,259.851288 279.095123,258.443573 
	C277.640015,254.470276 281.905151,248.446579 276.379608,246.335449 
	C272.383759,244.808777 267.335144,246.037674 261.995270,246.037674 
	C261.995270,240.367874 261.995270,235.296585 262.248474,229.787903 
	C262.653015,229.254852 262.804382,229.159210 262.955750,229.063568 
	C273.356781,229.102203 283.757812,229.140839 294.623901,229.074951 
	C295.088989,228.970413 295.029022,228.921692 294.907593,229.392303 
	C294.786163,234.965118 294.786163,240.067337 294.786163,245.893860 
	C310.884094,245.893860 326.447449,245.893860 342.010773,245.893860 
	C342.404266,246.296890 342.797791,246.699921 343.517029,247.119934 
	C343.828339,251.443314 343.813873,255.749710 343.806335,260.518311 
	C343.813232,260.980499 343.444702,260.889313 343.036194,261.012451 
	C342.329498,261.275482 342.105743,261.492188 341.492065,261.824890 
	C325.661377,261.903320 310.295135,261.942657 294.928894,261.981995 
z"/>
<path fill="#6B5C78" opacity="1.000000" stroke="none" 
	d="
M262.126007,214.798218 
	C260.862762,214.399460 259.715332,213.803009 258.575073,212.839249 
	C259.714386,212.314240 260.846497,212.156540 261.978638,211.998840 
	C261.978638,211.998840 262.103485,211.807098 262.208374,211.852814 
	C262.300903,212.204132 262.288605,212.509735 262.202087,213.269196 
	C262.308807,213.996964 262.346802,214.289444 262.126007,214.798218 
z"/>
<path fill="#6B5C78" opacity="1.000000" stroke="none" 
	d="
M262.874390,228.835175 
	C262.804382,229.159210 262.653015,229.254852 262.233337,229.341064 
	C261.941315,229.101761 261.917633,228.871872 261.979248,228.306198 
	C262.338959,228.146454 262.581787,228.358582 262.874390,228.835175 
z"/>
<path fill="#6B5C78" opacity="1.000000" stroke="none" 
	d="
M212.730225,162.366150 
	C211.767868,162.939743 210.547333,164.315659 209.158661,164.513916 
	C205.304077,165.064270 201.379517,165.124619 196.981415,165.458588 
	C196.304153,165.038269 196.128067,164.537933 195.951996,164.037613 
	C195.976013,163.860840 196.000031,163.684052 196.000488,163.240692 
	C196.151016,163.010223 196.325104,163.046326 196.759613,163.024597 
	C202.145126,162.854843 207.270218,162.742935 212.730225,162.366150 
z"/>
<path fill="#6B5C78" opacity="1.000000" stroke="none" 
	d="
M212.953949,150.403992 
	C213.187164,150.878647 213.299271,151.703827 213.242950,152.732651 
	C212.993958,152.209045 212.913391,151.481766 212.953949,150.403992 
z"/>
<path fill="#6B5C78" opacity="1.000000" stroke="none" 
	d="
M212.949081,157.415558 
	C213.179367,157.886627 213.290665,158.705505 213.234528,159.725616 
	C212.988083,159.205704 212.909088,158.484543 212.949081,157.415558 
z"/>
<path fill="#6B5C78" opacity="1.000000" stroke="none" 
	d="
M212.990601,134.250137 
	C213.396301,134.179947 213.481537,134.443573 213.205505,134.886505 
	C213.012589,134.809616 212.954544,134.649002 212.990601,134.250137 
z"/>
<path fill="#6B5C78" opacity="1.000000" stroke="none" 
	d="
M111.459183,262.006775 
	C117.108727,261.737915 123.208855,261.595306 129.657547,261.660278 
	C123.973991,261.956268 117.941887,262.044678 111.459183,262.006775 
z"/>
<path fill="#6B5C78" opacity="1.000000" stroke="none" 
	d="
M146.351807,262.103943 
	C146.725342,262.119629 147.227905,262.334229 147.649017,262.836517 
	C147.205307,262.850433 146.843079,262.576630 146.351807,262.103943 
z"/>
<path fill="#6B5C78" opacity="1.000000" stroke="none" 
	d="
M106.227722,261.955170 
	C106.254890,261.765411 106.541100,261.670593 106.918060,261.723602 
	C106.834785,261.930969 106.660767,261.990540 106.227722,261.955170 
z"/>
<path fill="#B670F8" opacity="1.000000" stroke="none" 
	d="
M353.724091,189.399323 
	C349.408356,189.695648 347.374634,188.361420 348.742645,183.897552 
	C349.259888,182.209641 348.532684,180.111984 349.140961,178.489029 
	C349.652313,177.124725 351.278229,176.178146 352.410706,175.046646 
	C353.274017,176.175369 354.853363,177.294968 354.867920,178.434509 
	C354.913452,182.011276 354.369965,185.595520 353.724091,189.399323 
z"/>
<path fill="#B670F8" opacity="1.000000" stroke="none" 
	d="
M349.545105,137.832275 
	C353.564545,136.530075 355.098022,138.189438 355.017914,141.854477 
	C354.967102,144.178452 355.283386,146.551819 354.900146,148.812332 
	C354.652954,150.270264 353.436920,151.563904 352.655060,152.931152 
	C351.323273,151.759476 348.970001,150.680954 348.853058,149.398499 
	C348.515259,145.694016 349.078094,141.907410 349.545105,137.832275 
z"/>
<path fill="#B670F8" opacity="1.000000" stroke="none" 
	d="
M337.701111,165.689301 
	C333.501648,166.341446 329.460022,166.775330 325.430206,166.684814 
	C324.618073,166.666565 323.252136,164.658875 323.253998,163.570328 
	C323.255463,162.716751 324.898041,161.264648 325.945892,161.130890 
	C328.705231,160.778656 331.543304,161.108383 334.339630,160.964615 
	C337.617004,160.796127 338.355988,162.487747 337.701111,165.689301 
z"/>
<path fill="#050208" opacity="1.000000" stroke="none" 
	d="
M199.063751,343.799713 
	C202.407425,343.716644 205.751099,343.633575 209.533386,343.691467 
	C210.652771,347.304352 211.761322,350.756470 211.923080,354.252380 
	C212.235703,361.008179 212.014359,367.788727 212.014359,375.005249 
	C206.674286,375.005249 202.371780,375.005249 197.614410,374.988281 
	C197.108337,365.295258 197.057129,355.619202 197.311035,345.440125 
	C198.098679,344.558014 198.581207,344.178864 199.063751,343.799713 
z"/>
<path fill="#06020A" opacity="1.000000" stroke="none" 
	d="
M181.756042,294.744965 
	C186.672531,294.600800 191.354233,294.773804 196.420135,295.061157 
	C196.792099,310.819489 196.779861,326.463501 196.604340,342.543121 
	C196.441040,342.978699 196.460754,342.932007 196.460754,342.932007 
	C191.521469,342.932007 186.582199,342.932007 181.005051,342.932007 
	C181.005051,337.454559 180.951843,332.374664 181.016083,327.296265 
	C181.151978,316.551147 181.349182,305.806824 181.756042,294.744965 
z"/>
<path fill="#1D1D1D" opacity="1.000000" stroke="none" 
	d="
M196.442719,343.075043 
	C196.460754,342.932007 196.441040,342.978699 196.414673,342.973358 
	C196.995697,343.116150 197.603104,343.264282 198.637115,343.606079 
	C198.581207,344.178864 198.098679,344.558014 197.373047,344.976044 
	C196.984268,344.604858 196.838593,344.194794 196.438583,343.580994 
	C196.184250,343.377228 196.424698,343.218079 196.442719,343.075043 
z"/>
<path fill="#1D1D1D" opacity="1.000000" stroke="none" 
	d="
M220.992767,376.869263 
	C223.008835,376.383087 225.063522,376.250458 227.559738,376.066284 
	C227.975723,376.195984 227.950180,376.377197 227.957214,376.831268 
	C225.720459,380.083679 223.396729,379.872345 220.992767,376.869263 
z"/>
<path fill="#B670F8" opacity="1.000000" stroke="none" 
	d="
M373.947327,160.990311 
	C375.740356,161.005692 377.166290,160.718735 378.355316,161.125076 
	C379.355743,161.466980 380.691650,162.560455 380.769104,163.421097 
	C380.861023,164.443100 379.840057,166.452896 379.172180,166.509445 
	C375.246887,166.841843 371.249268,167.022568 367.357758,166.562820 
	C366.373718,166.446564 365.687653,163.808075 364.119110,160.988388 
	C368.094788,160.988388 370.786194,160.988388 373.947327,160.990311 
z"/>
<path fill="#6B5C78" opacity="1.000000" stroke="none" 
	d="
M225.659088,131.000854 
	C225.165527,131.233917 224.310379,131.331955 223.240021,131.264725 
	C223.782364,131.021591 224.539917,130.943710 225.659088,131.000854 
z"/>
<path fill="#06020A" opacity="1.000000" stroke="none" 
	d="
M195.491547,164.054047 
	C196.128067,164.537933 196.304153,165.038269 196.646240,165.742828 
	C196.814362,167.678329 196.816452,169.409576 196.657654,171.822601 
	C196.606873,173.666382 196.716965,174.828400 196.827042,175.990433 
	C196.822754,186.736252 196.818466,197.482071 196.741577,208.864227 
	C196.668961,209.500565 196.856964,209.811035 196.856964,209.811035 
	C196.827896,210.293503 196.798828,210.775986 196.399734,211.616028 
	C195.043640,212.273468 194.057556,212.573334 193.071472,212.873199 
	C192.597733,212.866577 192.124008,212.859970 191.146805,212.698807 
	C190.111526,212.656601 189.579727,212.768936 189.047913,212.881287 
	C188.581100,212.875763 188.114273,212.870239 187.095078,212.700500 
	C185.704041,212.658066 184.865402,212.779861 184.026749,212.901642 
	C183.577667,212.897797 183.128571,212.893967 182.343460,212.911392 
	C181.676544,211.368774 181.065140,209.806046 181.058533,208.240799 
	C180.997894,193.856750 181.042038,179.472275 181.090912,164.633057 
	C185.761139,164.142273 190.396118,164.106369 195.491547,164.054047 
z"/>
<path fill="#090809" opacity="1.000000" stroke="none" 
	d="
M180.357101,213.924347 
	C180.493729,214.771973 180.446289,215.533875 179.971024,216.546204 
	C178.691605,215.621796 177.840027,214.446960 176.988434,213.272156 
	C177.732513,213.211533 178.476593,213.150925 179.595032,213.077026 
	C179.952087,213.344406 180.019974,213.602722 180.357101,213.924347 
z"/>
<path fill="#090809" opacity="1.000000" stroke="none" 
	d="
M342.218414,245.531219 
	C326.447449,245.893860 310.884094,245.893860 294.786163,245.893860 
	C294.786163,240.067337 294.786163,234.965118 294.869202,229.396713 
	C310.609772,229.035843 326.267242,229.141174 342.382629,229.290466 
	C342.702362,234.612473 342.564209,239.890533 342.218414,245.531219 
z"/>
<path fill="#050306" opacity="1.000000" stroke="none" 
	d="
M294.864929,262.446228 
	C310.295135,261.942657 325.661377,261.903320 341.739075,261.941223 
	C342.632019,262.031769 342.813538,262.045044 342.995026,262.058289 
	C343.037506,267.034180 343.079987,272.010101 343.025208,277.435913 
	C327.246674,277.902161 311.565399,277.918457 295.414246,277.984772 
	C294.896576,272.993347 294.848755,267.951874 294.864929,262.446228 
z"/>
<path fill="#000000" opacity="1.000000" stroke="none" 
	d="
M95.962814,166.953232 
	C96.103683,166.556091 96.259705,166.175690 96.415718,165.795273 
	C96.399445,166.106049 96.383163,166.416824 96.191635,166.860168 
	C96.016380,166.992722 95.977959,166.969955 95.962814,166.953232 
z"/>
<path fill="#020104" opacity="1.000000" stroke="none" 
	d="
M229.378647,178.780487 
	C229.387405,163.824646 229.396164,148.868790 229.371521,133.441772 
	C234.317429,132.506226 239.296738,132.041870 244.729156,131.759430 
	C245.141220,147.445663 245.100204,162.949951 244.613495,179.016739 
	C239.238098,179.312988 234.308365,179.046738 229.378647,178.780487 
z"/>
<path fill="#6B5C78" opacity="1.000000" stroke="none" 
	d="
M229.197968,179.064957 
	C234.308365,179.046738 239.238098,179.312988 244.642563,179.512543 
	C245.235199,179.643753 245.397141,179.794312 245.741547,179.993835 
	C245.872635,180.280106 245.865280,180.470078 245.769073,180.930878 
	C240.336182,180.912567 234.992096,180.623398 229.262756,180.171509 
	C228.924088,179.788986 228.970688,179.569199 229.197968,179.064957 
z"/>
<path fill="#000000" opacity="1.000000" stroke="none" 
	d="
M176.526642,213.192139 
	C177.840027,214.446960 178.691605,215.621796 179.799896,216.887375 
	C180.153061,218.370224 180.249542,219.762314 179.873993,221.611053 
	C177.651398,226.972351 173.844955,227.146500 169.350006,227.123779 
	C162.474945,227.088989 155.595718,227.877945 148.718262,228.317230 
	C148.718262,228.317230 148.705338,228.240967 148.744324,227.999664 
	C148.711319,227.462204 148.554749,227.220993 148.313614,227.034698 
	C148.243652,222.987869 148.173676,218.941025 148.012177,214.438248 
	C152.138153,213.684174 156.351669,213.243332 160.574234,213.124435 
	C165.733795,212.979187 170.900955,213.104080 176.526642,213.192139 
z"/>
<path fill="#B2B2B3" opacity="1.000000" stroke="none" 
	d="
M343.057434,261.803650 
	C342.813538,262.045044 342.632019,262.031769 342.203491,261.902100 
	C342.105743,261.492188 342.329498,261.275482 342.859009,261.080505 
	C343.100189,261.199982 343.110046,261.374481 343.057434,261.803650 
z"/>
<path fill="#050306" opacity="1.000000" stroke="none" 
	d="
M261.992065,211.530518 
	C260.846497,212.156540 259.714386,212.314240 258.298645,212.656982 
	C255.002258,212.845657 251.989426,212.849274 248.301285,212.669403 
	C247.066483,212.352478 246.506989,212.219025 245.947510,212.085571 
	C245.907684,202.041458 245.867874,191.997330 245.885773,181.489960 
	C250.942871,181.010742 255.942230,180.994766 261.398315,181.003387 
	C261.905212,191.039368 261.955353,201.050781 261.992065,211.530518 
z"/>
<path fill="#090809" opacity="1.000000" stroke="none" 
	d="
M148.792343,228.568481 
	C155.595718,227.877945 162.474945,227.088989 169.350006,227.123779 
	C173.844955,227.146500 177.651398,226.972351 179.721252,222.005524 
	C180.168381,223.598434 180.296188,225.253494 180.175461,227.431946 
	C179.654495,228.370392 179.382050,228.785477 179.109619,229.200562 
	C169.391541,229.220703 159.673462,229.240829 149.489822,229.290146 
	C148.971649,229.152817 148.919037,228.986282 148.792343,228.568481 
z"/>
<path fill="#090809" opacity="1.000000" stroke="none" 
	d="
M148.276016,227.268341 
	C148.554749,227.220993 148.711319,227.462204 148.777191,227.979279 
	C148.408356,228.108749 148.230804,227.876022 148.276016,227.268341 
z"/>
<path fill="#6B5C78" opacity="1.000000" stroke="none" 
	d="
M246.026306,212.428406 
	C246.506989,212.219025 247.066483,212.352478 247.851761,212.662842 
	C247.420074,212.816925 246.762604,212.794083 246.026306,212.428406 
z"/>
<path fill="#6B5C78" opacity="1.000000" stroke="none" 
	d="
M193.275269,213.084183 
	C194.057556,212.573334 195.043640,212.273468 196.346344,211.974594 
	C195.601685,212.415436 194.540375,212.855286 193.275269,213.084183 
z"/>
<path fill="#6B5C78" opacity="1.000000" stroke="none" 
	d="
M184.225998,213.093597 
	C184.865402,212.779861 185.704041,212.658066 186.745056,212.710098 
	C186.106689,213.017792 185.265961,213.151657 184.225998,213.093597 
z"/>
<path fill="#6B5C78" opacity="1.000000" stroke="none" 
	d="
M179.294830,229.382721 
	C179.382050,228.785477 179.654495,228.370392 180.154785,227.851013 
	C180.081772,228.352753 179.780899,228.958817 179.294830,229.382721 
z"/>
<path fill="#6B5C78" opacity="1.000000" stroke="none" 
	d="
M196.962311,175.605667 
	C196.716965,174.828400 196.606873,173.666382 196.663010,172.253738 
	C196.918686,173.075714 197.008133,174.148315 196.962311,175.605667 
z"/>
<path fill="#6B5C78" opacity="1.000000" stroke="none" 
	d="
M189.189636,213.064117 
	C189.579727,212.768936 190.111526,212.656601 190.791626,212.710175 
	C190.403717,212.999710 189.867554,213.123322 189.189636,213.064117 
z"/>
<path fill="#6B5C78" opacity="1.000000" stroke="none" 
	d="
M197.003876,209.790588 
	C196.856964,209.811035 196.668961,209.500565 196.759888,209.344391 
	C196.850815,209.188202 197.203537,209.360977 197.203537,209.360977 
	C197.203537,209.360977 197.150803,209.770142 197.003876,209.790588 
z"/>
</svg>